M48
;DRILL file {KiCad 4.0.1-stable} date 2016/01/09 16:38:12
;FORMAT={-:-/ absolute / metric / decimal}
FMAT,2
METRIC,TZ
T1C0.400
T2C1.016
%
G90
G05
M71
T1
X120.5Y-15.5
X120.5Y-22.5
X120.5Y-29.5
X120.5Y-36.5
X120.5Y-43.5
X120.5Y-50.5
X120.5Y-57.5
X120.5Y-64.5
X120.5Y-71.5
X120.5Y-78.5
X120.5Y-85.5
X120.5Y-92.5
X120.5Y-99.5
X120.5Y-106.5
X127.Y-15.5
X127.Y-22.5
X127.Y-29.5
X127.Y-36.5
X127.Y-43.5
X127.Y-50.5
X127.Y-57.5
X127.Y-64.5
X127.Y-71.5
X127.Y-78.5
X127.Y-85.5
X127.Y-92.5
X127.Y-99.5
X127.Y-106.5
X127.5Y-13.75
X127.5Y-20.75
X127.5Y-27.75
X127.5Y-34.75
X127.5Y-41.75
X127.5Y-48.75
X127.5Y-55.75
X127.5Y-62.75
X127.5Y-69.75
X127.5Y-76.75
X127.5Y-83.75
X127.5Y-90.75
X127.5Y-97.75
X127.5Y-104.75
X131.5Y-13.75
X131.5Y-18.
X131.5Y-20.75
X131.5Y-25.
X131.5Y-27.75
X131.5Y-32.
X131.5Y-34.75
X131.5Y-39.
X131.5Y-41.75
X131.5Y-46.
X131.5Y-48.75
X131.5Y-53.
X131.5Y-55.75
X131.5Y-60.
X131.5Y-62.75
X131.5Y-67.
X131.5Y-69.75
X131.5Y-74.
X131.5Y-76.75
X131.5Y-81.
X131.5Y-83.75
X131.5Y-88.
X131.5Y-90.75
X131.5Y-95.
X131.5Y-97.75
X131.5Y-102.
X131.5Y-104.75
X131.5Y-109.
X133.75Y-17.75
X133.75Y-24.75
X133.75Y-31.75
X133.75Y-38.75
X133.75Y-45.75
X133.75Y-52.75
X133.75Y-59.75
X133.75Y-66.75
X133.75Y-73.75
X133.75Y-80.75
X133.75Y-87.75
X133.75Y-94.75
X133.75Y-101.75
X133.75Y-108.75
X138.5Y-17.5
X138.5Y-24.5
X138.5Y-31.5
X138.5Y-38.5
X138.5Y-45.5
X138.5Y-52.5
X138.5Y-59.5
X138.5Y-66.5
X138.5Y-73.5
X138.5Y-80.5
X138.5Y-87.5
X138.5Y-94.5
X138.5Y-101.5
X138.5Y-108.5
X140.75Y-15.
X140.75Y-22.
X140.75Y-29.
X140.75Y-36.
X140.75Y-43.
X140.75Y-50.
X140.75Y-57.
X140.75Y-64.
X140.75Y-71.
X140.75Y-78.
X140.75Y-85.
X140.75Y-92.
X140.75Y-99.
X140.75Y-106.
X143.25Y-13.5
X143.25Y-20.5
X143.25Y-27.5
X143.25Y-34.5
X143.25Y-41.5
X143.25Y-48.5
X143.25Y-55.5
X143.25Y-62.5
X143.25Y-69.5
X143.25Y-76.5
X143.25Y-83.5
X143.25Y-90.5
X143.25Y-97.5
X143.25Y-104.5
X144.Y-16.
X144.Y-23.
X144.Y-30.
X144.Y-37.
X144.Y-44.
X144.Y-51.
X144.Y-58.
X144.Y-65.
X144.Y-72.
X144.Y-79.
X144.Y-86.
X144.Y-93.
X144.Y-100.
X144.Y-107.
X146.Y-15.
X146.Y-22.
X146.Y-29.
X146.Y-36.
X146.Y-43.
X146.Y-50.
X146.Y-57.
X146.Y-64.
X146.Y-71.
X146.Y-78.
X146.Y-85.
X146.Y-92.
X146.Y-99.
X146.Y-106.
X150.Y-14.5
X150.Y-21.5
X150.Y-28.5
X150.Y-35.5
X150.Y-42.5
X150.Y-49.5
X150.Y-56.5
X150.Y-63.5
X150.Y-70.5
X150.Y-77.5
X150.Y-84.5
X150.Y-91.5
X150.Y-98.5
X150.Y-105.5
X151.75Y-16.
X151.75Y-23.
X151.75Y-30.
X151.75Y-37.
X151.75Y-44.
X151.75Y-51.
X151.75Y-58.
X151.75Y-65.
X151.75Y-72.
X151.75Y-79.
X151.75Y-86.
X151.75Y-93.
X151.75Y-100.
X151.75Y-107.
X156.25Y-14.
X156.25Y-21.
X156.25Y-28.
X156.25Y-35.
X156.25Y-42.
X156.25Y-49.
X156.25Y-56.
X156.25Y-63.
X156.25Y-70.
X156.25Y-77.
X156.25Y-84.
X156.25Y-91.
X156.25Y-98.
X156.25Y-105.
X156.5Y-18.
X156.5Y-25.
X156.5Y-32.
X156.5Y-39.
X156.5Y-46.
X156.5Y-53.
X156.5Y-60.
X156.5Y-67.
X156.5Y-74.
X156.5Y-81.
X156.5Y-88.
X156.5Y-95.
X156.5Y-102.
X156.5Y-109.
X158.75Y-17.75
X158.75Y-24.75
X158.75Y-31.75
X158.75Y-38.75
X158.75Y-45.75
X158.75Y-52.75
X158.75Y-59.75
X158.75Y-66.75
X158.75Y-73.75
X158.75Y-80.75
X158.75Y-87.75
X158.75Y-94.75
X158.75Y-101.75
X158.75Y-108.75
X163.Y-14.9
X163.Y-21.9
X163.Y-28.9
X163.Y-35.9
X163.Y-42.9
X163.Y-49.9
X163.Y-56.9
X163.Y-63.9
X163.Y-70.9
X163.Y-77.9
X163.Y-84.9
X163.Y-91.9
X163.Y-98.9
X163.Y-105.9
X164.25Y-17.
X164.25Y-24.
X164.25Y-31.
X164.25Y-38.
X164.25Y-45.
X164.25Y-52.
X164.25Y-59.
X164.25Y-66.
X164.25Y-73.
X164.25Y-80.
X164.25Y-87.
X164.25Y-94.
X164.25Y-101.
X164.25Y-108.
X165.75Y-15.
X165.75Y-22.
X165.75Y-29.
X165.75Y-36.
X165.75Y-43.
X165.75Y-50.
X165.75Y-57.
X165.75Y-64.
X165.75Y-71.
X165.75Y-78.
X165.75Y-85.
X165.75Y-92.
X165.75Y-99.
X165.75Y-106.
X166.5Y-17.75
X166.5Y-24.75
X166.5Y-31.75
X166.5Y-38.75
X166.5Y-45.75
X166.5Y-52.75
X166.5Y-59.75
X166.5Y-66.75
X166.5Y-73.75
X166.5Y-80.75
X166.5Y-87.75
X166.5Y-94.75
X166.5Y-101.75
X166.5Y-108.75
X168.75Y-16.
X168.75Y-23.
X168.75Y-30.
X168.75Y-37.
X168.75Y-44.
X168.75Y-51.
X168.75Y-58.
X168.75Y-65.
X168.75Y-72.
X168.75Y-79.
X168.75Y-86.
X168.75Y-93.
X168.75Y-100.
X168.75Y-107.
X169.25Y-13.5
X169.25Y-20.5
X169.25Y-27.5
X169.25Y-34.5
X169.25Y-41.5
X169.25Y-48.5
X169.25Y-55.5
X169.25Y-62.5
X169.25Y-69.5
X169.25Y-76.5
X169.25Y-83.5
X169.25Y-90.5
X169.25Y-97.5
X169.25Y-104.5
X171.75Y-15.
X171.75Y-22.
X171.75Y-29.
X171.75Y-36.
X171.75Y-43.
X171.75Y-50.
X171.75Y-57.
X171.75Y-64.
X171.75Y-71.
X171.75Y-78.
X171.75Y-85.
X171.75Y-92.
X171.75Y-99.
X171.75Y-106.
X175.75Y-14.5
X175.75Y-21.5
X175.75Y-28.5
X175.75Y-35.5
X175.75Y-42.5
X175.75Y-49.5
X175.75Y-56.5
X175.75Y-63.5
X175.75Y-70.5
X175.75Y-77.5
X175.75Y-84.5
X175.75Y-91.5
X175.75Y-98.5
X175.75Y-105.5
X177.5Y-16.
X177.5Y-23.
X177.5Y-30.
X177.5Y-37.
X177.5Y-44.
X177.5Y-51.
X177.5Y-58.
X177.5Y-65.
X177.5Y-72.
X177.5Y-79.
X177.5Y-86.
X177.5Y-93.
X177.5Y-100.
X177.5Y-107.
X177.75Y-13.5
X177.75Y-20.5
X177.75Y-27.5
X177.75Y-34.5
X177.75Y-41.5
X177.75Y-48.5
X177.75Y-55.5
X177.75Y-62.5
X177.75Y-69.5
X177.75Y-76.5
X177.75Y-83.5
X177.75Y-90.5
X177.75Y-97.5
X177.75Y-104.5
X181.25Y-13.75
X181.25Y-20.75
X181.25Y-27.75
X181.25Y-34.75
X181.25Y-41.75
X181.25Y-48.75
X181.25Y-55.75
X181.25Y-62.75
X181.25Y-69.75
X181.25Y-76.75
X181.25Y-83.75
X181.25Y-90.75
X181.25Y-97.75
X181.25Y-104.75
X181.5Y-18.
X181.5Y-25.
X181.5Y-32.
X181.5Y-39.
X181.5Y-46.
X181.5Y-53.
X181.5Y-60.
X181.5Y-67.
X181.5Y-74.
X181.5Y-81.
X181.5Y-88.
X181.5Y-95.
X181.5Y-102.
X181.5Y-109.
X183.75Y-17.75
X183.75Y-24.75
X183.75Y-31.75
X183.75Y-38.75
X183.75Y-45.75
X183.75Y-52.75
X183.75Y-59.75
X183.75Y-66.75
X183.75Y-73.75
X183.75Y-80.75
X183.75Y-87.75
X183.75Y-94.75
X183.75Y-101.75
X183.75Y-108.75
X190.Y-16.75
X190.Y-23.75
X190.Y-30.75
X190.Y-37.75
X190.Y-44.75
X190.Y-51.75
X190.Y-58.75
X190.Y-65.75
X190.Y-72.75
X190.Y-79.75
X190.Y-86.75
X190.Y-93.75
X190.Y-100.75
X190.Y-107.75
X190.25Y-15.
X190.25Y-22.
X190.25Y-29.
X190.25Y-36.
X190.25Y-43.
X190.25Y-50.
X190.25Y-57.
X190.25Y-64.
X190.25Y-71.
X190.25Y-78.
X190.25Y-85.
X190.25Y-92.
X190.25Y-99.
X190.25Y-106.
X191.75Y-17.75
X191.75Y-24.75
X191.75Y-31.75
X191.75Y-38.75
X191.75Y-45.75
X191.75Y-52.75
X191.75Y-59.75
X191.75Y-66.75
X191.75Y-73.75
X191.75Y-80.75
X191.75Y-87.75
X191.75Y-94.75
X191.75Y-101.75
X191.75Y-108.75
X193.25Y-14.
X193.25Y-21.
X193.25Y-28.
X193.25Y-35.
X193.25Y-42.
X193.25Y-49.
X193.25Y-56.
X193.25Y-63.
X193.25Y-70.
X193.25Y-77.
X193.25Y-84.
X193.25Y-91.
X193.25Y-98.
X193.25Y-105.
X195.25Y-16.
X195.25Y-23.
X195.25Y-30.
X195.25Y-37.
X195.25Y-44.
X195.25Y-51.
X195.25Y-58.
X195.25Y-65.
X195.25Y-72.
X195.25Y-79.
X195.25Y-86.
X195.25Y-93.
X195.25Y-100.
X195.25Y-107.
X198.5Y-14.25
X198.5Y-21.25
X198.5Y-28.25
X198.5Y-35.25
X198.5Y-42.25
X198.5Y-49.25
X198.5Y-56.25
X198.5Y-63.25
X198.5Y-70.25
X198.5Y-77.25
X198.5Y-84.25
X198.5Y-91.25
X198.5Y-98.25
X198.5Y-105.25
X202.25Y-16.
X202.25Y-23.
X202.25Y-30.
X202.25Y-37.
X202.25Y-44.
X202.25Y-51.
X202.25Y-58.
X202.25Y-65.
X202.25Y-72.
X202.25Y-79.
X202.25Y-86.
X202.25Y-93.
X202.25Y-100.
X202.25Y-107.
X203.25Y-13.75
X203.25Y-20.75
X203.25Y-27.75
X203.25Y-34.75
X203.25Y-41.75
X203.25Y-48.75
X203.25Y-55.75
X203.25Y-62.75
X203.25Y-69.75
X203.25Y-76.75
X203.25Y-83.75
X203.25Y-90.75
X203.25Y-97.75
X203.25Y-104.75
X206.5Y-18.
X206.5Y-25.
X206.5Y-32.
X206.5Y-39.
X206.5Y-46.
X206.5Y-53.
X206.5Y-60.
X206.5Y-67.
X206.5Y-74.
X206.5Y-81.
X206.5Y-88.
X206.5Y-95.
X206.5Y-102.
X206.5Y-109.
X207.5Y-13.75
X207.5Y-20.75
X207.5Y-27.75
X207.5Y-34.75
X207.5Y-41.75
X207.5Y-48.75
X207.5Y-55.75
X207.5Y-62.75
X207.5Y-69.75
X207.5Y-76.75
X207.5Y-83.75
X207.5Y-90.75
X207.5Y-97.75
X207.5Y-104.75
X208.75Y-17.75
X208.75Y-24.75
X208.75Y-31.75
X208.75Y-38.75
X208.75Y-45.75
X208.75Y-52.75
X208.75Y-59.75
X208.75Y-66.75
X208.75Y-73.75
X208.75Y-80.75
X208.75Y-87.75
X208.75Y-94.75
X208.75Y-101.75
X208.75Y-108.75
X210.Y-16.
X210.Y-23.
X210.Y-30.
X210.Y-37.
X210.Y-44.
X210.Y-51.
X210.Y-58.
X210.Y-65.
X210.Y-72.
X210.Y-79.
X210.Y-86.
X210.Y-93.
X210.Y-100.
X210.Y-107.
X211.5Y-14.
X211.5Y-21.
X211.5Y-28.
X211.5Y-35.
X211.5Y-42.
X211.5Y-49.
X211.5Y-56.
X211.5Y-63.
X211.5Y-70.
X211.5Y-77.
X211.5Y-84.
X211.5Y-91.
X211.5Y-98.
X211.5Y-105.
X212.25Y-13.5
X212.25Y-20.5
X212.25Y-27.5
X212.25Y-34.5
X212.25Y-41.5
X212.25Y-48.5
X212.25Y-55.5
X212.25Y-62.5
X212.25Y-69.5
X212.25Y-76.5
X212.25Y-83.5
X212.25Y-90.5
X212.25Y-97.5
X212.25Y-104.5
X213.25Y-13.75
X213.25Y-20.75
X213.25Y-27.75
X213.25Y-34.75
X213.25Y-41.75
X213.25Y-48.75
X213.25Y-55.75
X213.25Y-62.75
X213.25Y-69.75
X213.25Y-76.75
X213.25Y-83.75
X213.25Y-90.75
X213.25Y-97.75
X213.25Y-104.75
T2
X121.46Y-14.21
X121.46Y-16.75
X121.46Y-21.21
X121.46Y-23.75
X121.46Y-28.21
X121.46Y-30.75
X121.46Y-35.21
X121.46Y-37.75
X121.46Y-42.21
X121.46Y-44.75
X121.46Y-49.21
X121.46Y-51.75
X121.46Y-56.21
X121.46Y-58.75
X121.46Y-63.21
X121.46Y-65.75
X121.46Y-70.21
X121.46Y-72.75
X121.46Y-77.21
X121.46Y-79.75
X121.46Y-84.21
X121.46Y-86.75
X121.46Y-91.21
X121.46Y-93.75
X121.46Y-98.21
X121.46Y-100.75
X121.46Y-105.21
X121.46Y-107.75
X124.Y-14.21
X124.Y-16.75
X124.Y-21.21
X124.Y-23.75
X124.Y-28.21
X124.Y-30.75
X124.Y-35.21
X124.Y-37.75
X124.Y-42.21
X124.Y-44.75
X124.Y-49.21
X124.Y-51.75
X124.Y-56.21
X124.Y-58.75
X124.Y-63.21
X124.Y-65.75
X124.Y-70.21
X124.Y-72.75
X124.Y-77.21
X124.Y-79.75
X124.Y-84.21
X124.Y-86.75
X124.Y-91.21
X124.Y-93.75
X124.Y-98.21
X124.Y-100.75
X124.Y-105.21
X124.Y-107.75
X216.Y-14.5
X216.Y-17.04
X216.Y-21.5
X216.Y-24.04
X216.Y-28.5
X216.Y-31.04
X216.Y-35.5
X216.Y-38.04
X216.Y-42.5
X216.Y-45.04
X216.Y-49.5
X216.Y-52.04
X216.Y-56.5
X216.Y-59.04
X216.Y-63.5
X216.Y-66.04
X216.Y-70.5
X216.Y-73.04
X216.Y-77.5
X216.Y-80.04
X216.Y-84.5
X216.Y-87.04
X216.Y-91.5
X216.Y-94.04
X216.Y-98.5
X216.Y-101.04
X216.Y-105.5
X216.Y-108.04
X218.54Y-14.5
X218.54Y-17.04
X218.54Y-21.5
X218.54Y-24.04
X218.54Y-28.5
X218.54Y-31.04
X218.54Y-35.5
X218.54Y-38.04
X218.54Y-42.5
X218.54Y-45.04
X218.54Y-49.5
X218.54Y-52.04
X218.54Y-56.5
X218.54Y-59.04
X218.54Y-63.5
X218.54Y-66.04
X218.54Y-70.5
X218.54Y-73.04
X218.54Y-77.5
X218.54Y-80.04
X218.54Y-84.5
X218.54Y-87.04
X218.54Y-91.5
X218.54Y-94.04
X218.54Y-98.5
X218.54Y-101.04
X218.54Y-105.5
X218.54Y-108.04
T0
M30
